<svg width="574" height="31" viewBox="0 0 574 31" fill="none" xmlns="http://www.w3.org/2000/svg">
<rect y="3" width="574" height="21" rx="6" fill="#E5E5E5"/>
<rect y="4" width="482" height="20" rx="6" fill="#FB3F5C"/>
<g filter="url(#filter0_d)">
<path d="M488 13.0037C488 20.1834 482.18 26.0037 475 26.0037C467.82 26.0037 462 20.1834 462 13.0037C462 5.82396 467.82 0.00366211 475 0.00366211C482.18 0.00366211 488 5.82396 488 13.0037Z" fill="#FB3F5C"/>
</g>
<path d="M468.645 17.12C468.178 17.12 467.755 17.0367 467.375 16.87C467.002 16.6967 466.702 16.4567 466.475 16.15C466.255 15.8433 466.145 15.4833 466.145 15.07C466.145 14.65 466.262 14.2733 466.495 13.94C466.735 13.6067 467.052 13.38 467.445 13.26C467.092 13.12 466.818 12.9167 466.625 12.65C466.432 12.3767 466.335 12.0767 466.335 11.75C466.335 11.41 466.425 11.1 466.605 10.82C466.785 10.5333 467.045 10.3067 467.385 10.14C467.732 9.96667 468.152 9.88 468.645 9.88C469.138 9.88 469.555 9.96667 469.895 10.14C470.242 10.3067 470.505 10.5333 470.685 10.82C470.865 11.1 470.955 11.41 470.955 11.75C470.955 12.07 470.855 12.37 470.655 12.65C470.462 12.9233 470.188 13.1267 469.835 13.26C470.228 13.3867 470.542 13.6167 470.775 13.95C471.015 14.2767 471.135 14.65 471.135 15.07C471.135 15.4833 471.025 15.8433 470.805 16.15C470.585 16.4567 470.285 16.6967 469.905 16.87C469.532 17.0367 469.112 17.12 468.645 17.12ZM468.645 12.92C469.032 12.92 469.335 12.82 469.555 12.62C469.782 12.42 469.895 12.1633 469.895 11.85C469.895 11.4967 469.785 11.2267 469.565 11.04C469.345 10.8533 469.038 10.76 468.645 10.76C468.252 10.76 467.945 10.8533 467.725 11.04C467.505 11.2267 467.395 11.4967 467.395 11.85C467.395 12.1633 467.505 12.42 467.725 12.62C467.945 12.82 468.252 12.92 468.645 12.92ZM468.645 16.22C469.125 16.22 469.485 16.1067 469.725 15.88C469.965 15.6467 470.085 15.35 470.085 14.99C470.085 14.59 469.955 14.2833 469.695 14.07C469.442 13.85 469.092 13.74 468.645 13.74C468.198 13.74 467.845 13.85 467.585 14.07C467.325 14.2833 467.195 14.59 467.195 14.99C467.195 15.35 467.315 15.6467 467.555 15.88C467.802 16.1067 468.165 16.22 468.645 16.22ZM475.256 17.12C474.623 17.12 474.076 16.97 473.616 16.67C473.163 16.3633 472.813 15.94 472.566 15.4C472.326 14.8533 472.206 14.22 472.206 13.5C472.206 12.78 472.326 12.15 472.566 11.61C472.813 11.0633 473.163 10.64 473.616 10.34C474.076 10.0333 474.623 9.88 475.256 9.88C475.889 9.88 476.433 10.0333 476.886 10.34C477.339 10.64 477.686 11.0633 477.926 11.61C478.173 12.15 478.296 12.78 478.296 13.5C478.296 14.22 478.173 14.8533 477.926 15.4C477.686 15.94 477.339 16.3633 476.886 16.67C476.433 16.97 475.889 17.12 475.256 17.12ZM475.256 16.17C475.636 16.17 475.973 16.0633 476.266 15.85C476.566 15.6367 476.799 15.33 476.966 14.93C477.133 14.53 477.216 14.0533 477.216 13.5C477.216 12.9467 477.133 12.47 476.966 12.07C476.799 11.67 476.566 11.3633 476.266 11.15C475.973 10.9367 475.636 10.83 475.256 10.83C474.869 10.83 474.529 10.9367 474.236 11.15C473.943 11.3633 473.713 11.67 473.546 12.07C473.379 12.47 473.296 12.9467 473.296 13.5C473.296 14.0533 473.379 14.53 473.546 14.93C473.713 15.33 473.943 15.6367 474.236 15.85C474.529 16.0633 474.869 16.17 475.256 16.17ZM480.828 13.34C480.514 13.34 480.231 13.27 479.978 13.13C479.731 12.99 479.534 12.7933 479.388 12.54C479.241 12.28 479.168 11.97 479.168 11.61C479.168 11.2567 479.241 10.9533 479.388 10.7C479.534 10.44 479.734 10.24 479.988 10.1C480.241 9.96 480.524 9.89 480.838 9.89C481.144 9.89 481.421 9.96 481.668 10.1C481.921 10.24 482.121 10.44 482.268 10.7C482.414 10.9533 482.488 11.2567 482.488 11.61C482.488 11.97 482.414 12.28 482.268 12.54C482.121 12.7933 481.921 12.99 481.668 13.13C481.421 13.27 481.141 13.34 480.828 13.34ZM480.328 17L484.338 10H485.378L481.378 17H480.328ZM480.828 12.58C481.041 12.58 481.224 12.5 481.378 12.34C481.538 12.1733 481.618 11.93 481.618 11.61C481.618 11.29 481.541 11.05 481.388 10.89C481.234 10.7233 481.048 10.64 480.828 10.64C480.614 10.64 480.428 10.7233 480.268 10.89C480.108 11.05 480.028 11.29 480.028 11.61C480.028 11.93 480.104 12.1733 480.258 12.34C480.418 12.5 480.608 12.58 480.828 12.58ZM484.938 17.12C484.624 17.12 484.341 17.05 484.088 16.91C483.841 16.77 483.644 16.5733 483.498 16.32C483.351 16.06 483.278 15.75 483.278 15.39C483.278 15.0367 483.351 14.73 483.498 14.47C483.644 14.21 483.844 14.01 484.098 13.87C484.351 13.73 484.634 13.66 484.948 13.66C485.254 13.66 485.531 13.73 485.778 13.87C486.031 14.01 486.231 14.21 486.378 14.47C486.524 14.73 486.598 15.0367 486.598 15.39C486.598 15.75 486.524 16.06 486.378 16.32C486.231 16.5733 486.031 16.77 485.778 16.91C485.531 17.05 485.251 17.12 484.938 17.12ZM484.938 16.35C485.151 16.35 485.334 16.27 485.488 16.11C485.648 15.95 485.728 15.71 485.728 15.39C485.728 15.07 485.651 14.83 485.498 14.67C485.344 14.5033 485.158 14.42 484.938 14.42C484.724 14.42 484.538 14.5033 484.378 14.67C484.218 14.83 484.138 15.07 484.138 15.39C484.138 15.71 484.214 15.95 484.368 16.11C484.528 16.27 484.718 16.35 484.938 16.35Z" fill="black"/>
<defs>
<filter id="filter0_d" x="460" y="0.00366211" width="30" height="30" filterUnits="userSpaceOnUse" color-interpolation-filters="sRGB">
<feFlood flood-opacity="0" result="BackgroundImageFix"/>
<feColorMatrix in="SourceAlpha" type="matrix" values="0 0 0 0 0 0 0 0 0 0 0 0 0 0 0 0 0 0 127 0"/>
<feOffset dy="2"/>
<feGaussianBlur stdDeviation="1"/>
<feColorMatrix type="matrix" values="0 0 0 0 0 0 0 0 0 0 0 0 0 0 0 0 0 0 0.25 0"/>
<feBlend mode="normal" in2="BackgroundImageFix" result="effect1_dropShadow"/>
<feBlend mode="normal" in="SourceGraphic" in2="effect1_dropShadow" result="shape"/>
</filter>
</defs>
</svg>
